<svg width="60" height="60" viewBox="0 0 60 60" fill="none" xmlns="http://www.w3.org/2000/svg">
<path d="M60 30C60 46.5683 46.5683 60 30 60C13.4333 60 0 46.5683 0 30C0 13.4333 13.4333 0 30 0C46.5683 0 60 13.4333 60 30Z" fill="#FFCC4D"/>
<path d="M42.4748 49.7985C42.3998 49.5002 40.5281 42.5002 29.9998 42.5002C19.4698 42.5002 17.5998 49.5002 17.5248 49.7985C17.4331 50.1602 17.5965 50.5352 17.9198 50.7218C18.2448 50.9035 18.6515 50.8535 18.9198 50.5935C18.9515 50.5618 22.1765 47.5002 29.9998 47.5002C37.8231 47.5002 41.0498 50.5618 41.0798 50.5918C41.2398 50.7502 41.4531 50.8335 41.6665 50.8335C41.8065 50.8335 41.9481 50.7985 42.0765 50.7268C42.4031 50.5402 42.5665 50.1618 42.4748 49.7985ZM26.1781 28.8218C20.7531 23.3968 12.0348 23.3335 11.6665 23.3335C10.7465 23.3335 10.0015 24.0785 10.0015 24.9968C9.9998 25.9168 10.7448 26.6635 11.6648 26.6668C11.7131 26.6668 14.8731 26.7035 18.3031 27.8952C17.3148 28.9618 16.6665 30.6185 16.6665 32.5002C16.6665 35.7235 18.5315 38.3335 20.8331 38.3335C23.1348 38.3335 24.9998 35.7235 24.9998 32.5002C24.9998 32.2102 24.9681 31.9335 24.9381 31.6552C24.9598 31.6552 24.9798 31.6668 24.9998 31.6668C25.4265 31.6668 25.8531 31.5035 26.1781 31.1785C26.8298 30.5268 26.8298 29.4735 26.1781 28.8218ZM48.3331 23.3335C47.9648 23.3335 39.2481 23.3968 33.8215 28.8218C33.1698 29.4735 33.1698 30.5268 33.8215 31.1785C34.1465 31.5035 34.5731 31.6668 34.9998 31.6668C35.0215 31.6668 35.0398 31.6552 35.0598 31.6552C35.0331 31.9335 34.9998 32.2102 34.9998 32.5002C34.9998 35.7235 36.8648 38.3335 39.1665 38.3335C41.4681 38.3335 43.3331 35.7235 43.3331 32.5002C43.3331 30.6185 42.6848 28.9618 41.6965 27.8952C45.1265 26.7035 48.2865 26.6668 48.3365 26.6668C49.2548 26.6635 49.9998 25.9168 49.9981 24.9968C49.9965 24.0785 49.2531 23.3335 48.3331 23.3335Z" fill="#292F33"/>
</svg>
