<svg width="60" height="60" viewBox="0 0 60 60" fill="none" xmlns="http://www.w3.org/2000/svg">
<path d="M60 30C60 46.5683 46.5683 60 30 60C13.4317 60 0 46.5683 0 30C0 13.4317 13.4317 0 30 0C46.5683 0 60 13.4317 60 30Z" fill="#FFCC4D"/>
<path d="M30.0001 35.0001C23.9617 35.0001 19.9551 34.2968 15.0001 33.3334C13.8684 33.1151 11.6667 33.3334 11.6667 36.6668C11.6667 43.3334 19.3251 51.6668 30.0001 51.6668C40.6734 51.6668 48.3334 43.3334 48.3334 36.6668C48.3334 33.3334 46.1317 33.1134 45.0001 33.3334C40.0451 34.2968 36.0384 35.0001 30.0001 35.0001Z" fill="#664500"/>
<path d="M15 36.6665C15 36.6665 20 38.3332 30 38.3332C40 38.3332 45 36.6665 45 36.6665C45 36.6665 41.6667 43.3332 30 43.3332C18.3333 43.3332 15 36.6665 15 36.6665Z" fill="white"/>
<path d="M26.1368 7.35481L18.5668 8.68981L14.6668 1.60147C14.2368 0.819805 13.3534 0.401472 12.4801 0.554805C11.6018 0.709805 10.9184 1.40647 10.7818 2.28647L9.54011 10.2815L1.97011 11.6165C1.07844 11.7731 0.390112 12.4915 0.268445 13.3898C0.146778 14.2881 0.620112 15.1615 1.44011 15.5515L8.22344 18.7715L6.97678 26.7915C6.83844 27.6848 7.29178 28.5648 8.09844 28.9731C8.39678 29.1231 8.71678 29.1948 9.03511 29.1948C9.58011 29.1948 10.1184 28.9815 10.5201 28.5748L16.3734 22.6398L23.9034 26.2148C24.7201 26.6015 25.6934 26.4198 26.3134 25.7615C26.9334 25.1031 27.0568 24.1215 26.6218 23.3298L22.7084 16.2165L27.9834 10.8698C28.6201 10.2248 28.7651 9.24147 28.3451 8.43814C27.9218 7.63481 27.0234 7.19981 26.1368 7.35481ZM33.8634 7.35481L41.4334 8.68981L45.3334 1.60147C45.7634 0.819805 46.6468 0.401472 47.5201 0.554805C48.3968 0.709805 49.0801 1.40647 49.2168 2.28647L50.4584 10.2815L58.0284 11.6165C58.9218 11.7731 59.6101 12.4898 59.7301 13.3881C59.8501 14.2865 59.3784 15.1598 58.5584 15.5498L51.7751 18.7698L53.0218 26.7898C53.1601 27.6831 52.7068 28.5631 51.9001 28.9715C51.6018 29.1215 51.2818 29.1931 50.9634 29.1931C50.4184 29.1931 49.8801 28.9798 49.4784 28.5731L43.6251 22.6381L36.0951 26.2131C35.2784 26.5998 34.3051 26.4181 33.6851 25.7598C33.0651 25.1015 32.9418 24.1198 33.3768 23.3281L37.2901 16.2165L32.0151 10.8698C31.3784 10.2248 31.2334 9.24147 31.6534 8.43814C32.0784 7.63481 32.9768 7.19981 33.8634 7.35481Z" fill="#E95F28"/>
</svg>
