<svg width="60" height="60" viewBox="0 0 60 60" fill="none" xmlns="http://www.w3.org/2000/svg">
<path d="M30 60C46.5685 60 60 46.5685 60 30C60 13.4315 46.5685 0 30 0C13.4315 0 0 13.4315 0 30C0 46.5685 13.4315 60 30 60Z" fill="#FFCC4D"/>
<path d="M17.5248 39.3685C17.5998 39.6668 19.4715 46.6668 29.9998 46.6668C40.5298 46.6668 42.3998 39.6668 42.4748 39.3685C42.5665 39.0068 42.4031 38.6318 42.0798 38.4452C41.7548 38.2602 41.3481 38.3152 41.0798 38.5735C41.0481 38.6052 37.8231 41.6668 29.9998 41.6668C22.1765 41.6668 18.9498 38.6052 18.9198 38.5752C18.7598 38.4168 18.5465 38.3335 18.3331 38.3335C18.1931 38.3335 18.0515 38.3685 17.9231 38.4402C17.5965 38.6268 17.4331 39.0052 17.5248 39.3685Z" fill="#664500"/>
<path d="M19.9999 28.3332C22.3011 28.3332 24.1666 25.7215 24.1666 22.4998C24.1666 19.2782 22.3011 16.6665 19.9999 16.6665C17.6987 16.6665 15.8333 19.2782 15.8333 22.4998C15.8333 25.7215 17.6987 28.3332 19.9999 28.3332Z" fill="#664500"/>
<path d="M40.0002 28.3332C42.3013 28.3332 44.1668 25.7215 44.1668 22.4998C44.1668 19.2782 42.3013 16.6665 40.0002 16.6665C37.699 16.6665 35.8335 19.2782 35.8335 22.4998C35.8335 25.7215 37.699 28.3332 40.0002 28.3332Z" fill="#664500"/>
</svg>
