<svg width="60" height="60" viewBox="0 0 60 60" fill="none" xmlns="http://www.w3.org/2000/svg">
<path d="M60 30C60 46.5683 46.5683 60 30 60C13.4333 60 0 46.5683 0 30C0 13.4333 13.4333 0 30 0C46.5683 0 60 13.4333 60 30Z" fill="#FFCC4D"/>
<path d="M26.6667 29.9998C25.9684 29.9998 25.3184 29.5582 25.0851 28.8598C24.7467 27.8615 23.3901 24.9998 21.6667 24.9998C19.8967 24.9998 18.5201 28.0448 18.2484 28.8598C17.9567 29.7315 17.0184 30.2065 16.1401 29.9132C15.2667 29.6232 14.7951 28.6782 15.0867 27.8048C15.2951 27.1782 17.2601 21.6665 21.6667 21.6665C26.0734 21.6665 28.0384 27.1782 28.2484 27.8065C28.5401 28.6798 28.0684 29.6248 27.1951 29.9148C27.0184 29.9715 26.8401 29.9998 26.6667 29.9998ZM43.3334 29.9998C42.6351 29.9998 41.9851 29.5582 41.7534 28.8598C41.4151 27.8615 40.0551 24.9998 38.3334 24.9998C36.5634 24.9998 35.1851 28.0448 34.9134 28.8598C34.6217 29.7315 33.6868 30.2065 32.8051 29.9132C31.9334 29.6232 31.4601 28.6782 31.7518 27.8048C31.9618 27.1782 33.9251 21.6665 38.3334 21.6665C42.7417 21.6665 44.7051 27.1782 44.9134 27.8065C45.2051 28.6798 44.7334 29.6248 43.8601 29.9148C43.6851 29.9715 43.5068 29.9998 43.3334 29.9998ZM30.0001 36.6665C23.9617 36.6665 19.9551 35.9632 15.0001 34.9998C13.8684 34.7815 11.6667 34.9998 11.6667 38.3332C11.6667 44.9998 19.3251 53.3332 30.0001 53.3332C40.6734 53.3332 48.3334 44.9998 48.3334 38.3332C48.3334 34.9998 46.1317 34.7798 45.0001 34.9998C40.0451 35.9632 36.0384 36.6665 30.0001 36.6665Z" fill="#664500"/>
<path d="M15 38.3335C15 38.3335 20 40.0002 30 40.0002C40 40.0002 45 38.3335 45 38.3335C45 38.3335 42.76 49.5835 30 49.5835C17.24 49.5835 15 38.3335 15 38.3335Z" fill="white"/>
<path d="M30.0001 45.9903C24.0067 45.9903 19.5467 45.3703 16.7717 44.7487L15.3967 41.6303C16.7684 42.1503 21.8784 43.1253 30.0017 43.1253C38.2584 43.1253 43.3967 42.0987 44.7751 41.562L43.6067 44.632C40.8834 45.2653 36.2417 45.9903 30.0001 45.9903Z" fill="#664500"/>
</svg>
