<svg width="60" height="60" viewBox="0 0 60 60" fill="none" xmlns="http://www.w3.org/2000/svg">
<path d="M60 30C60 46.5683 46.5683 60 30 60C13.4333 60 0 46.5683 0 30C0 13.4333 13.4333 0 30 0C46.5683 0 60 13.4333 60 30Z" fill="#FFCC4D"/>
<path d="M19.1667 33.3332C21.4679 33.3332 23.3333 30.7215 23.3333 27.4998C23.3333 24.2782 21.4679 21.6665 19.1667 21.6665C16.8655 21.6665 15 24.2782 15 27.4998C15 30.7215 16.8655 33.3332 19.1667 33.3332Z" fill="#664500"/>
<path d="M40.8334 33.3332C43.1346 33.3332 45.0001 30.7215 45.0001 27.4998C45.0001 24.2782 43.1346 21.6665 40.8334 21.6665C38.5322 21.6665 36.6667 24.2782 36.6667 27.4998C36.6667 30.7215 38.5322 33.3332 40.8334 33.3332Z" fill="#664500"/>
<path d="M41.6665 43.3333H18.3332C17.4132 43.3333 16.6665 42.5883 16.6665 41.6667C16.6665 40.745 17.4132 40 18.3332 40H41.6665C42.5882 40 43.3332 40.745 43.3332 41.6667C43.3332 42.5883 42.5882 43.3333 41.6665 43.3333Z" fill="#664500"/>
</svg>
