<svg width="60" height="60" viewBox="0 0 60 60" fill="none" xmlns="http://www.w3.org/2000/svg">
<path d="M60 30C60 46.5683 46.5683 60 30 60C13.4333 60 0 46.5683 0 30C0 13.4333 13.4333 0 30 0C46.5683 0 60 13.4333 60 30Z" fill="#FFCC4D"/>
<path d="M19.1667 33.3332C21.4679 33.3332 23.3333 30.7215 23.3333 27.4998C23.3333 24.2782 21.4679 21.6665 19.1667 21.6665C16.8655 21.6665 15 24.2782 15 27.4998C15 30.7215 16.8655 33.3332 19.1667 33.3332Z" fill="#664500"/>
<path d="M40.8334 33.3332C43.1346 33.3332 45.0001 30.7215 45.0001 27.4998C45.0001 24.2782 43.1346 21.6665 40.8334 21.6665C38.5322 21.6665 36.6667 24.2782 36.6667 27.4998C36.6667 30.7215 38.5322 33.3332 40.8334 33.3332Z" fill="#664500"/>
<path d="M39.1418 46.4648C39.1235 46.3915 37.2335 39.1665 30.0001 39.1665C22.7668 39.1665 20.8768 46.3915 20.8585 46.4648C20.7701 46.8198 20.9318 47.1832 21.2451 47.3715C21.5585 47.5582 21.9668 47.5148 22.2385 47.2715C22.2535 47.2598 23.9268 45.8332 30.0001 45.8332C35.9835 45.8332 37.6951 47.2165 37.7601 47.2715C37.9185 47.4232 38.1251 47.4998 38.3335 47.4998C38.4735 47.4998 38.6151 47.4648 38.7435 47.3932C39.0701 47.2082 39.2335 46.8282 39.1418 46.4648Z" fill="#664500"/>
<path d="M16.6667 49.9997C16.6667 54.603 12.9367 58.333 8.33333 58.333C3.73 58.333 0 54.603 0 49.9997C0 45.3963 6.66667 33.333 8.33333 33.333C10 33.333 16.6667 45.3963 16.6667 49.9997Z" fill="#5DADEC"/>
<path d="M49.9999 21.6664C40.7433 21.6664 36.9966 14.3881 36.8416 14.0781C36.4299 13.2548 36.7633 12.2531 37.5866 11.8414C38.4066 11.4298 39.4066 11.7614 39.8199 12.5798C39.9449 12.8231 42.8549 18.3331 49.9999 18.3331C50.9216 18.3331 51.6666 19.0798 51.6666 19.9998C51.6666 20.9214 50.9216 21.6664 49.9999 21.6664ZM9.99992 21.6664C9.07992 21.6664 8.33325 20.9198 8.33325 19.9998C8.33325 19.0798 9.07992 18.3331 9.99992 18.3331C18.4716 18.3331 19.9933 13.1331 20.0549 12.9114C20.2966 12.0314 21.2049 11.4981 22.0866 11.7298C22.9699 11.9614 23.5049 12.8514 23.2833 13.7381C23.2016 14.0614 21.1733 21.6664 9.99992 21.6664Z" fill="#664500"/>
</svg>
