<svg width="60" height="60" viewBox="0 0 60 60" fill="none" xmlns="http://www.w3.org/2000/svg">
<path d="M60 30C60 46.5683 46.5683 60 30 60C13.4333 60 0 46.5683 0 30C0 13.4333 13.4333 0 30 0C46.5683 0 60 13.4333 60 30Z" fill="#FFCC4D"/>
<path d="M9.99992 21.6669C9.07992 21.6669 8.33325 20.9202 8.33325 20.0002C8.33325 19.0819 9.07492 18.3369 9.99325 18.3335C10.2533 18.3302 15.9416 18.1902 20.3349 12.3335C20.8866 11.6002 21.9299 11.4469 22.6683 12.0002C23.4049 12.5519 23.5533 13.5969 23.0016 14.3335C17.5633 21.5835 10.3066 21.6669 9.99992 21.6669ZM49.9999 21.6669C49.6933 21.6669 42.4383 21.5835 36.9999 14.3335C36.4466 13.5969 36.5966 12.5519 37.3333 12.0002C38.0683 11.4452 39.1116 11.5969 39.6649 12.3335C44.0666 18.2019 49.7666 18.3319 50.0083 18.3335C50.9249 18.3435 51.6649 19.0935 51.6599 20.0085C51.6566 20.9269 50.9166 21.6669 49.9999 21.6669ZM50.9999 33.6669C50.8099 33.5235 47.7816 31.2902 43.2566 29.7602C43.2999 29.5685 43.3333 29.3719 43.3333 29.1669C43.3333 28.5519 43.1016 27.9952 42.7349 27.5602C45.7383 26.6935 48.2916 26.6669 48.3366 26.6669C49.2549 26.6635 49.9999 25.9169 49.9983 24.9969C49.9966 24.0785 49.2533 23.3335 48.3333 23.3335C47.9649 23.3335 39.2483 23.3969 33.8216 28.8219C33.3449 29.2985 33.2016 30.0152 33.4599 30.6385C33.7166 31.2619 34.3266 31.6669 34.9999 31.6669C42.6499 31.6669 48.9382 36.2869 49.0016 36.3352C49.3016 36.5585 49.6516 36.6652 49.9983 36.6652C50.5066 36.6652 51.0066 36.4335 51.3349 35.9985C51.8849 35.2602 51.7349 34.2185 50.9999 33.6669ZM26.1783 28.8219C20.7533 23.3969 12.0349 23.3335 11.6666 23.3335C10.7466 23.3335 10.0016 24.0785 10.0016 24.9969C9.99992 25.9169 10.7449 26.6635 11.6649 26.6669C11.7083 26.6669 14.2616 26.6935 17.2666 27.5602C16.8983 27.9952 16.6666 28.5519 16.6666 29.1669C16.6666 29.3719 16.6983 29.5685 16.7449 29.7602C12.2183 31.2902 9.18992 33.5235 8.99992 33.6669C8.26325 34.2185 8.11492 35.2635 8.66658 35.9985C8.99325 36.4369 9.49492 36.6669 10.0016 36.6669C10.3483 36.6669 10.6999 36.5585 10.9999 36.3335C11.0616 36.2869 17.3116 31.6669 24.9999 31.6669C25.6733 31.6669 26.2816 31.2619 26.5399 30.6385C26.7983 30.0152 26.6549 29.2985 26.1783 28.8219ZM29.9999 50.0002C29.4933 50.0002 29.0149 49.7702 28.6983 49.3752L23.3749 42.7219L19.6666 47.6669C19.3766 48.0535 18.9333 48.2952 18.4516 48.3285C17.9683 48.3635 17.4949 48.1869 17.1549 47.8452L15.4883 46.1785C14.8366 45.5269 14.8366 44.4735 15.4883 43.8219C16.1399 43.1702 17.1933 43.1702 17.8449 43.8219L18.1533 44.1302L21.9999 39.0002C22.3099 38.5869 22.7916 38.3402 23.3066 38.3335C23.7983 38.3169 24.3116 38.5552 24.6333 38.9585L29.9999 45.6652L35.3649 38.9585C35.6866 38.5569 36.1716 38.3335 36.6933 38.3335C37.2099 38.3419 37.6916 38.5869 37.9999 39.0002L41.8483 44.1285L42.1566 43.8202C42.8083 43.1685 43.8616 43.1685 44.5133 43.8202C45.1649 44.4719 45.1649 45.5252 44.5133 46.1769L42.8466 47.8435C42.5049 48.1852 42.0483 48.3669 41.5499 48.3269C41.0683 48.2919 40.6249 48.0519 40.3349 47.6652L36.6249 42.7202L31.3033 49.3735C30.9849 49.7702 30.5066 50.0002 29.9999 50.0002Z" fill="#664500"/>
</svg>
