<svg width="60" height="60" viewBox="0 0 60 60" fill="none" xmlns="http://www.w3.org/2000/svg">
<path d="M60 30C60 46.5683 46.5683 60 30 60C13.4333 60 0 46.5683 0 30C0 13.4333 13.4333 0 30 0C46.5683 0 60 13.4333 60 30Z" fill="#FFCC4D"/>
<path d="M30 18.3333C44.5817 18.3333 56.7217 25.8483 59.4267 35.8067C59.7967 33.9267 60 31.9867 60 30C60 13.4333 46.5683 0 30 0C13.4333 0 0 13.4333 0 30C0 31.9867 0.205 33.9267 0.573333 35.8067C3.27833 25.8483 15.42 18.3333 30 18.3333Z" fill="#BDDDF4"/>
<path d="M19.1667 33.3332C21.4679 33.3332 23.3333 30.7215 23.3333 27.4998C23.3333 24.2782 21.4679 21.6665 19.1667 21.6665C16.8655 21.6665 15 24.2782 15 27.4998C15 30.7215 16.8655 33.3332 19.1667 33.3332Z" fill="#664500"/>
<path d="M40.8334 33.3332C43.1346 33.3332 45.0001 30.7215 45.0001 27.4998C45.0001 24.2782 43.1346 21.6665 40.8334 21.6665C38.5322 21.6665 36.6667 24.2782 36.6667 27.4998C36.6667 30.7215 38.5322 33.3332 40.8334 33.3332Z" fill="#664500"/>
<path d="M9.99817 20C9.6515 20 9.29984 19.8917 8.99984 19.6667C8.26317 19.115 8.11484 18.07 8.6665 17.3333C14.1032 10.0833 21.3598 10 21.6665 10C22.5865 10 23.3332 10.7467 23.3332 11.6667C23.3332 12.585 22.5915 13.33 21.6732 13.3333C21.4148 13.3367 15.7265 13.4767 11.3332 19.3333C11.0065 19.77 10.5048 20 9.99817 20ZM50.0015 20C49.4932 20 48.9948 19.77 48.6665 19.3333C44.2665 13.465 38.5648 13.3367 38.3232 13.3333C37.4065 13.3233 36.6665 12.5733 36.6715 11.6583C36.6765 10.74 37.4165 10 38.3332 10C38.6398 10 45.8948 10.0833 51.3332 17.3333C51.8865 18.07 51.7365 19.115 50.9998 19.6667C50.6998 19.8917 50.3498 20 50.0015 20ZM39.1415 46.465C39.1232 46.3917 37.2332 39.1667 29.9998 39.1667C22.7665 39.1667 20.8765 46.3917 20.8582 46.465C20.7698 46.82 20.9298 47.1833 21.2432 47.3717C21.5548 47.5583 21.9648 47.515 22.2365 47.2717C22.2548 47.2583 23.9282 45.8333 29.9998 45.8333C35.9815 45.8333 37.6948 47.2167 37.7598 47.2717C37.9182 47.4217 38.1248 47.5 38.3332 47.5C38.4732 47.5 38.6148 47.465 38.7432 47.3933C39.0698 47.2067 39.2332 46.8283 39.1415 46.465Z" fill="#664500"/>
</svg>
