<svg width="156" height="48" viewBox="0 0 156 48" fill="none" xmlns="http://www.w3.org/2000/svg">
<path d="M71.3409 18.4773C72.9279 18.4773 74.0917 18.9581 74.8323 19.9197C75.5906 20.8641 75.9697 22.1177 75.9697 23.6803V30.9697C75.9697 31.1929 75.8903 31.3818 75.7316 31.5364C75.5906 31.6737 75.4054 31.7424 75.1762 31.7424C74.9469 31.7424 74.753 31.6737 74.5943 31.5364C74.4532 31.3818 74.3827 31.1929 74.3827 30.9697V23.7576C74.3827 22.6242 74.1005 21.7056 73.5363 21.0015C72.9896 20.2803 72.1344 19.9197 70.9706 19.9197C70.23 19.9197 69.5247 20.0914 68.8546 20.4348C68.2022 20.7783 67.6732 21.2505 67.2677 21.8515C66.8621 22.4354 66.6593 23.0707 66.6593 23.7576V30.9697C66.6593 31.1929 66.58 31.3818 66.4213 31.5364C66.2802 31.6737 66.095 31.7424 65.8658 31.7424C65.6366 31.7424 65.4426 31.6737 65.2839 31.5364C65.1428 31.3818 65.0723 31.1929 65.0723 30.9697V23.6803C65.0723 22.5641 64.8078 21.6626 64.2788 20.9758C63.7498 20.2717 62.9211 19.9197 61.7925 19.9197C61.0696 19.9197 60.3819 20.0914 59.7294 20.4348C59.0946 20.7783 58.5745 21.2419 58.1689 21.8258C57.781 22.3924 57.587 23.0106 57.587 23.6803V30.9697C57.587 31.1929 57.5076 31.3818 57.3489 31.5364C57.2079 31.6737 57.0227 31.7424 56.7935 31.7424C56.5643 31.7424 56.3703 31.6737 56.2116 31.5364C56.0705 31.3818 56 31.1929 56 30.9697V19.4303C56 19.2071 56.0705 19.0268 56.2116 18.8894C56.3703 18.7348 56.5643 18.6576 56.7935 18.6576C57.0227 18.6576 57.2079 18.7348 57.3489 18.8894C57.5076 19.0268 57.587 19.2071 57.587 19.4303V20.9242C58.0631 20.2202 58.7067 19.6364 59.5178 19.1727C60.329 18.7091 61.1842 18.4773 62.0835 18.4773C63.1062 18.4773 63.9879 18.7177 64.7285 19.1985C65.4691 19.6793 65.9981 20.3833 66.3155 21.3106C66.6858 20.5551 67.3646 19.8939 68.3521 19.3273C69.3396 18.7606 70.3358 18.4773 71.3409 18.4773Z" fill="#2A2A2A"/>
<path d="M92.6095 25.1485C92.6095 26.4364 92.3186 27.604 91.7367 28.6515C91.1548 29.699 90.3525 30.5232 89.3297 31.1242C88.307 31.7081 87.1697 32 85.9177 32C84.6658 32 83.5284 31.7081 82.5057 31.1242C81.4829 30.5232 80.6806 29.699 80.0987 28.6515C79.5168 27.604 79.2259 26.4364 79.2259 25.1485C79.2259 23.8606 79.5168 22.6929 80.0987 21.6455C80.6806 20.598 81.4829 19.7737 82.5057 19.1727C83.5284 18.5717 84.6658 18.2712 85.9177 18.2712C87.1697 18.2712 88.307 18.5717 89.3297 19.1727C90.3525 19.7737 91.1548 20.598 91.7367 21.6455C92.3186 22.6929 92.6095 23.8606 92.6095 25.1485ZM91.0225 25.1485C91.0225 24.1182 90.8021 23.1909 90.3613 22.3667C89.9205 21.5424 89.3033 20.8985 88.5098 20.4348C87.7339 19.954 86.8699 19.7136 85.9177 19.7136C84.9655 19.7136 84.1015 19.954 83.3256 20.4348C82.5498 20.8985 81.9326 21.5424 81.4741 22.3667C81.0333 23.1909 80.8129 24.1182 80.8129 25.1485C80.8129 26.1616 81.0333 27.0803 81.4741 27.9045C81.9326 28.7288 82.5498 29.3813 83.3256 29.8621C84.1015 30.3258 84.9655 30.5576 85.9177 30.5576C86.8699 30.5576 87.7339 30.3258 88.5098 29.8621C89.3033 29.3985 89.9205 28.7545 90.3613 27.9303C90.8021 27.1061 91.0225 26.1788 91.0225 25.1485Z" fill="#2A2A2A"/>
<path d="M111.197 18.4773C112.784 18.4773 113.947 18.9581 114.688 19.9197C115.446 20.8641 115.825 22.1177 115.825 23.6803V30.9697C115.825 31.1929 115.746 31.3818 115.587 31.5364C115.446 31.6737 115.261 31.7424 115.032 31.7424C114.803 31.7424 114.609 31.6737 114.45 31.5364C114.309 31.3818 114.238 31.1929 114.238 30.9697V23.7576C114.238 22.6242 113.956 21.7056 113.392 21.0015C112.845 20.2803 111.99 19.9197 110.826 19.9197C110.086 19.9197 109.38 20.0914 108.71 20.4348C108.058 20.7783 107.529 21.2505 107.123 21.8515C106.718 22.4354 106.515 23.0707 106.515 23.7576V30.9697C106.515 31.1929 106.436 31.3818 106.277 31.5364C106.136 31.6737 105.951 31.7424 105.721 31.7424C105.492 31.7424 105.298 31.6737 105.14 31.5364C104.998 31.3818 104.928 31.1929 104.928 30.9697V23.6803C104.928 22.5641 104.663 21.6626 104.134 20.9758C103.605 20.2717 102.777 19.9197 101.648 19.9197C100.925 19.9197 100.238 20.0914 99.5851 20.4348C98.9503 20.7783 98.4301 21.2419 98.0245 21.8258C97.6366 22.3924 97.4426 23.0106 97.4426 23.6803V30.9697C97.4426 31.1929 97.3633 31.3818 97.2046 31.5364C97.0635 31.6737 96.8784 31.7424 96.6491 31.7424C96.4199 31.7424 96.2259 31.6737 96.0672 31.5364C95.9262 31.3818 95.8556 31.1929 95.8556 30.9697V19.4303C95.8556 19.2071 95.9262 19.0268 96.0672 18.8894C96.2259 18.7348 96.4199 18.6576 96.6491 18.6576C96.8784 18.6576 97.0635 18.7348 97.2046 18.8894C97.3633 19.0268 97.4426 19.2071 97.4426 19.4303V20.9242C97.9187 20.2202 98.5623 19.6364 99.3735 19.1727C100.185 18.7091 101.04 18.4773 101.939 18.4773C102.962 18.4773 103.844 18.7177 104.584 19.1985C105.325 19.6793 105.854 20.3833 106.171 21.3106C106.541 20.5551 107.22 19.8939 108.208 19.3273C109.195 18.7606 110.191 18.4773 111.197 18.4773Z" fill="#2A2A2A"/>
<path d="M131.407 24.4015C131.407 24.6076 131.328 24.7879 131.169 24.9424C131.01 25.0798 130.825 25.1485 130.614 25.1485H120.616C120.616 26.1788 120.827 27.1061 121.25 27.9303C121.691 28.7374 122.308 29.3813 123.102 29.8621C123.913 30.3258 124.865 30.5576 125.959 30.5576C126.805 30.5576 127.563 30.3859 128.233 30.0424C128.903 29.699 129.441 29.2611 129.847 28.7288C130.041 28.5742 130.226 28.497 130.402 28.497C130.578 28.497 130.737 28.5657 130.878 28.703C131.019 28.8404 131.09 28.9949 131.09 29.1667C131.09 29.3556 131.002 29.5359 130.825 29.7076C130.261 30.3773 129.547 30.9268 128.683 31.3561C127.836 31.7854 126.937 32 125.985 32C124.627 32 123.428 31.7167 122.388 31.15C121.347 30.5833 120.536 29.7934 119.954 28.7803C119.372 27.75 119.082 26.5652 119.082 25.2258C119.082 23.8177 119.364 22.5899 119.928 21.5424C120.51 20.4778 121.277 19.6707 122.229 19.1212C123.181 18.5545 124.195 18.2712 125.271 18.2712C126.329 18.2712 127.316 18.5116 128.233 18.9924C129.168 19.4732 129.926 20.1773 130.508 21.1045C131.09 22.0318 131.39 23.1308 131.407 24.4015ZM125.271 19.7652C124.248 19.7652 123.296 20.1086 122.414 20.7955C121.55 21.4823 120.995 22.4697 120.748 23.7576H129.767V23.5515C129.679 22.7788 129.415 22.1091 128.974 21.5424C128.533 20.9586 127.978 20.5207 127.307 20.2288C126.655 19.9197 125.976 19.7652 125.271 19.7652Z" fill="#2A2A2A"/>
<path d="M141.053 18.2712C142.692 18.2712 143.891 18.7434 144.65 19.6879C145.426 20.6152 145.813 21.8515 145.813 23.397V30.9697C145.813 31.1929 145.734 31.3818 145.575 31.5364C145.417 31.6737 145.232 31.7424 145.02 31.7424C144.791 31.7424 144.597 31.6737 144.438 31.5364C144.297 31.3818 144.226 31.1929 144.226 30.9697V23.4742C144.226 22.3581 143.936 21.4566 143.354 20.7697C142.789 20.0657 141.908 19.7136 140.709 19.7136C139.95 19.7136 139.227 19.8854 138.54 20.2288C137.87 20.5722 137.323 21.0359 136.9 21.6197C136.477 22.1864 136.265 22.8045 136.265 23.4742V30.9697C136.265 31.1929 136.186 31.3818 136.027 31.5364C135.886 31.6737 135.701 31.7424 135.472 31.7424C135.242 31.7424 135.048 31.6737 134.89 31.5364C134.749 31.3818 134.678 31.1929 134.678 30.9697V19.4303C134.678 19.2071 134.749 19.0268 134.89 18.8894C135.048 18.7348 135.242 18.6576 135.472 18.6576C135.701 18.6576 135.886 18.7348 136.027 18.8894C136.186 19.0268 136.265 19.2071 136.265 19.4303V20.847C136.741 20.1086 137.42 19.499 138.302 19.0182C139.201 18.5202 140.118 18.2712 141.053 18.2712Z" fill="#2A2A2A"/>
<path d="M152.614 20.0742V28.703C152.614 29.3556 152.738 29.802 152.985 30.0424C153.232 30.2657 153.558 30.3773 153.963 30.3773C154.069 30.3773 154.201 30.3601 154.36 30.3258C154.519 30.2742 154.642 30.2485 154.73 30.2485C154.889 30.2485 155.021 30.3172 155.127 30.4545C155.251 30.5747 155.312 30.7207 155.312 30.8924C155.312 31.1328 155.171 31.3389 154.889 31.5106C154.607 31.6652 154.272 31.7424 153.884 31.7424C153.408 31.7424 152.985 31.6995 152.614 31.6136C152.244 31.5278 151.883 31.2702 151.53 30.8409C151.195 30.4116 151.027 29.7247 151.027 28.7803V20.0742H149.097C148.885 20.0742 148.7 20.0056 148.541 19.8682C148.4 19.7308 148.33 19.5591 148.33 19.353C148.33 19.147 148.4 18.9753 148.541 18.8379C148.7 18.7005 148.885 18.6318 149.097 18.6318H151.027V15.7727C151.027 15.5495 151.098 15.3692 151.239 15.2318C151.398 15.0773 151.592 15 151.821 15C152.05 15 152.235 15.0773 152.376 15.2318C152.535 15.3692 152.614 15.5495 152.614 15.7727V18.6318H155.259C155.453 18.6318 155.621 18.7091 155.762 18.8636C155.921 19.0182 156 19.1899 156 19.3788C156 19.5848 155.929 19.7566 155.788 19.8939C155.647 20.0141 155.471 20.0742 155.259 20.0742H152.614Z" fill="#2A2A2A"/>
<circle cx="24" cy="24" r="24" fill="#FAFAFA"/>
<path fill-rule="evenodd" clip-rule="evenodd" d="M24 48C37.2548 48 48 37.2548 48 24C48 21.6043 47.649 19.2906 46.9956 17.1075C45.228 18.0692 43.3362 18.9481 41.4322 19.5647C41.5996 19.706 41.7705 19.8599 41.9411 20.0267C43.0798 21.14 44.2364 22.8645 44.2364 25.3073C44.2364 27.0175 43.21 28.5293 42.2098 29.3859C41.1113 30.3266 39.5367 30.7024 38.2279 30.7024C36.8186 30.7024 35.7362 30.3976 34.8951 29.9211C34.0563 29.4458 33.5202 28.8352 33.1541 28.3232C32.4335 27.3155 31.8095 25.2243 32.3779 23.1495C32.8971 21.2543 34.3582 19.5337 37.2202 18.6012L36.9848 18.3404C36.1818 17.4498 35.441 16.6281 34.6027 15.8901C33.374 14.8086 32.0597 14.0353 30.3376 13.7869C25.3192 13.0627 22.0529 15.7726 19.878 17.7798C19.1108 18.4877 18.3658 19.2989 17.6529 20.1688C18.4767 22.5781 18.762 25.2063 18.9123 27.6809C18.9996 29.1175 18.788 32.4213 18.0743 35.4305C17.7173 36.9358 17.2186 38.4389 16.5248 39.616C15.845 40.7694 14.8498 41.8174 13.433 41.973C10.9496 42.2459 8.47886 40.4394 7.88526 37.8073C7.35218 35.4436 7.87245 33.2587 8.96551 30.7963C9.83851 28.8297 12.2295 23.939 15.378 19.8228C15.3604 19.7821 15.3426 19.7415 15.3246 19.7011C14.2826 17.3589 12.5523 15.4239 9.53164 14.3031C8.30498 13.848 5.58869 12.8563 3.18581 12.0433C1.15921 15.5635 0 19.6464 0 24C0 37.2548 10.7452 48 24 48ZM4.28784 10.3057C8.62328 4.07679 15.8355 0 24 0C34.1446 0 42.8192 6.29415 46.3315 15.1903C44.104 16.4237 41.725 17.4978 39.4324 18.0562C39.1496 17.7511 38.8649 17.4358 38.5775 17.1176L38.5775 17.1176C37.723 16.1716 36.8451 15.1996 35.9242 14.3889C34.5016 13.1367 32.8408 12.1274 30.6233 11.8074C24.6341 10.9431 20.754 14.2498 18.5216 16.31C17.924 16.8615 17.3412 17.4677 16.7769 18.1109C15.5016 15.67 13.465 13.6293 10.2274 12.4281C9.1025 12.0107 6.62049 11.103 4.28784 10.3057ZM10.7935 31.6078C11.5835 29.828 13.5671 25.7857 16.1511 22.1438C16.5973 23.9253 16.7975 25.8512 16.916 27.8022C16.99 29.0207 16.8022 32.1274 16.1283 34.969C15.7915 36.389 15.3493 37.6715 14.8018 38.6005C14.2402 39.5534 13.6936 39.9324 13.2146 39.985C11.8113 40.1392 10.2214 39.0752 9.83626 37.3673C9.4385 35.6036 9.78087 33.889 10.7935 31.6078ZM34.3068 23.678C34.6621 22.3811 35.7786 20.892 38.9053 20.2174C39.0138 20.2837 39.1367 20.3598 39.2743 20.4499C39.6421 20.6908 40.0985 21.0223 40.543 21.4568C41.4275 22.3216 42.2364 23.5616 42.2364 25.3073C42.2364 26.2491 41.6276 27.2513 40.9088 27.8668C40.2883 28.3982 39.2377 28.7024 38.2279 28.7024C37.1173 28.7024 36.3832 28.4655 35.8809 28.1809C35.3764 27.8951 35.0422 27.5253 34.7809 27.1599C34.3869 26.6089 33.9079 25.1341 34.3068 23.678Z" fill="url(#paint0_linear)"/>
<defs>
<linearGradient id="paint0_linear" x1="24" y1="0" x2="24" y2="48" gradientUnits="userSpaceOnUse">
<stop stop-color="#24C6DC"/>
<stop offset="1" stop-color="#514A9D"/>
</linearGradient>
</defs>
</svg>
